<mxfile host="app.diagrams.net" agent="Mozilla/5.0 (X11; Linux x86_64) AppleWebKit/537.36 (KHTML, like Gecko) Chrome/128.0.0.0 Safari/537.36" version="24.7.14">
  <diagram id="R2lEEEUBdFMjLlhIrx00" name="Page-1">
    <mxGraphModel dx="3147" dy="2177" grid="1" gridSize="10" guides="1" tooltips="1" connect="1" arrows="1" fold="1" page="1" pageScale="1" pageWidth="850" pageHeight="1100" math="0" shadow="0" extFonts="Permanent Marker^https://fonts.googleapis.com/css?family=Permanent+Marker">
      <root>
        <mxCell id="0" />
        <mxCell id="1" parent="0" />
        <mxCell id="sUNPVScMKGH0zn0_gehO-83" value="&lt;span style=&quot;font-size: 12px;&quot;&gt;E1 Parking&lt;/span&gt;" style="swimlane;childLayout=stackLayout;horizontal=1;startSize=50;horizontalStack=0;rounded=1;fontSize=14;fontStyle=0;strokeWidth=2;resizeParent=0;resizeLast=1;shadow=0;dashed=0;align=center;arcSize=4;whiteSpace=wrap;html=1;" vertex="1" parent="1">
          <mxGeometry x="110" y="60" width="85" height="120" as="geometry" />
        </mxCell>
        <mxCell id="sUNPVScMKGH0zn0_gehO-84" value="&lt;span style=&quot;text-wrap: wrap;&quot;&gt;location&lt;/span&gt;&lt;div&gt;&lt;span style=&quot;text-wrap: wrap;&quot;&gt;duration&lt;/span&gt;&lt;span style=&quot;text-wrap: wrap;&quot;&gt;&lt;br&gt;&lt;/span&gt;&lt;/div&gt;&lt;div&gt;&lt;span style=&quot;text-wrap: wrap;&quot;&gt;price&lt;/span&gt;&lt;div style=&quot;text-wrap: wrap;&quot;&gt;vehicle_type&lt;/div&gt;&lt;/div&gt;" style="align=left;strokeColor=none;fillColor=none;spacingLeft=4;fontSize=12;verticalAlign=top;resizable=0;rotatable=0;part=1;html=1;" vertex="1" parent="sUNPVScMKGH0zn0_gehO-83">
          <mxGeometry y="50" width="85" height="70" as="geometry" />
        </mxCell>
        <mxCell id="sUNPVScMKGH0zn0_gehO-85" value="&lt;span style=&quot;font-size: 12px;&quot;&gt;E2 GYM&lt;/span&gt;" style="swimlane;childLayout=stackLayout;horizontal=1;startSize=50;horizontalStack=0;rounded=1;fontSize=14;fontStyle=0;strokeWidth=2;resizeParent=0;resizeLast=1;shadow=0;dashed=0;align=center;arcSize=4;whiteSpace=wrap;html=1;" vertex="1" parent="1">
          <mxGeometry x="1243.5" y="220" width="120" height="160" as="geometry" />
        </mxCell>
        <mxCell id="sUNPVScMKGH0zn0_gehO-86" value="&lt;div&gt;&lt;span style=&quot;text-wrap: wrap;&quot;&gt;gym_id(pk)&lt;/span&gt;&lt;/div&gt;&lt;span style=&quot;text-wrap: wrap;&quot;&gt;name&lt;/span&gt;&lt;div&gt;&lt;span style=&quot;text-wrap: wrap;&quot;&gt;availability&lt;/span&gt;&lt;span style=&quot;text-wrap: wrap;&quot;&gt;&lt;br&gt;&lt;/span&gt;&lt;/div&gt;&lt;div&gt;&lt;span style=&quot;text-wrap: wrap;&quot;&gt;duration&lt;/span&gt;&lt;div style=&quot;text-wrap: wrap;&quot;&gt;opening_time&lt;/div&gt;&lt;div style=&quot;text-wrap: wrap;&quot;&gt;closing_time&lt;/div&gt;&lt;div style=&quot;text-wrap: wrap;&quot;&gt;location&lt;/div&gt;&lt;/div&gt;" style="align=left;strokeColor=none;fillColor=none;spacingLeft=4;fontSize=12;verticalAlign=top;resizable=0;rotatable=0;part=1;html=1;" vertex="1" parent="sUNPVScMKGH0zn0_gehO-85">
          <mxGeometry y="50" width="120" height="110" as="geometry" />
        </mxCell>
        <mxCell id="sUNPVScMKGH0zn0_gehO-89" value="&lt;span style=&quot;font-size: 12px;&quot;&gt;E4&lt;/span&gt;&lt;div&gt;&lt;span style=&quot;font-size: 12px;&quot;&gt;CommuntyRoom&lt;/span&gt;&lt;/div&gt;" style="swimlane;childLayout=stackLayout;horizontal=1;startSize=50;horizontalStack=0;rounded=1;fontSize=14;fontStyle=0;strokeWidth=2;resizeParent=0;resizeLast=1;shadow=0;dashed=0;align=center;arcSize=4;whiteSpace=wrap;html=1;" vertex="1" parent="1">
          <mxGeometry x="1230" y="660" width="147" height="180" as="geometry" />
        </mxCell>
        <mxCell id="sUNPVScMKGH0zn0_gehO-90" value="&lt;div&gt;&lt;span style=&quot;text-wrap: wrap;&quot;&gt;communityRoom_id(pk)&lt;/span&gt;&lt;/div&gt;&lt;span style=&quot;text-wrap: wrap;&quot;&gt;name&lt;/span&gt;&lt;div&gt;&lt;span style=&quot;text-wrap: wrap;&quot;&gt;availability&lt;/span&gt;&lt;span style=&quot;text-wrap: wrap;&quot;&gt;&lt;br&gt;&lt;/span&gt;&lt;/div&gt;&lt;div&gt;&lt;span style=&quot;text-wrap: wrap;&quot;&gt;duration&lt;/span&gt;&lt;div style=&quot;text-wrap: wrap;&quot;&gt;typeField&lt;br&gt;&lt;/div&gt;&lt;div style=&quot;text-wrap: wrap;&quot;&gt;reservation&lt;br&gt;&lt;/div&gt;&lt;div style=&quot;text-wrap: wrap;&quot;&gt;maximum_capacity&lt;br&gt;&lt;/div&gt;&lt;div style=&quot;text-wrap: wrap;&quot;&gt;location&lt;/div&gt;&lt;/div&gt;" style="align=left;strokeColor=none;fillColor=none;spacingLeft=4;fontSize=12;verticalAlign=top;resizable=0;rotatable=0;part=1;html=1;" vertex="1" parent="sUNPVScMKGH0zn0_gehO-89">
          <mxGeometry y="50" width="147" height="130" as="geometry" />
        </mxCell>
        <mxCell id="sUNPVScMKGH0zn0_gehO-91" value="&lt;span style=&quot;font-size: 12px;&quot;&gt;E5 Event&lt;/span&gt;" style="swimlane;childLayout=stackLayout;horizontal=1;startSize=50;horizontalStack=0;rounded=1;fontSize=14;fontStyle=0;strokeWidth=2;resizeParent=0;resizeLast=1;shadow=0;dashed=0;align=center;arcSize=4;whiteSpace=wrap;html=1;" vertex="1" parent="1">
          <mxGeometry x="1580" y="630" width="170" height="210" as="geometry" />
        </mxCell>
        <mxCell id="sUNPVScMKGH0zn0_gehO-92" value="&lt;div&gt;&lt;span style=&quot;text-wrap: wrap;&quot;&gt;event_id(pk)&lt;/span&gt;&lt;/div&gt;&lt;span style=&quot;text-wrap: wrap;&quot;&gt;name&lt;/span&gt;&lt;div&gt;&lt;span style=&quot;text-wrap: wrap;&quot;&gt;description&lt;/span&gt;&lt;span style=&quot;text-wrap: wrap;&quot;&gt;&lt;br&gt;&lt;/span&gt;&lt;/div&gt;&lt;div&gt;&lt;span style=&quot;text-wrap: wrap;&quot;&gt;date&lt;/span&gt;&lt;div style=&quot;text-wrap: wrap;&quot;&gt;hour&lt;/div&gt;&lt;div style=&quot;text-wrap: wrap;&quot;&gt;location&lt;/div&gt;&lt;/div&gt;" style="align=left;strokeColor=none;fillColor=none;spacingLeft=4;fontSize=12;verticalAlign=top;resizable=0;rotatable=0;part=1;html=1;" vertex="1" parent="sUNPVScMKGH0zn0_gehO-91">
          <mxGeometry y="50" width="170" height="160" as="geometry" />
        </mxCell>
        <mxCell id="sUNPVScMKGH0zn0_gehO-95" value="&lt;span style=&quot;font-size: 12px;&quot;&gt;E7&amp;nbsp;HOAFees&lt;/span&gt;" style="swimlane;childLayout=stackLayout;horizontal=1;startSize=50;horizontalStack=0;rounded=1;fontSize=14;fontStyle=0;strokeWidth=2;resizeParent=0;resizeLast=1;shadow=0;dashed=0;align=center;arcSize=4;whiteSpace=wrap;html=1;" vertex="1" parent="1">
          <mxGeometry x="60" y="570" width="90" height="120" as="geometry" />
        </mxCell>
        <mxCell id="sUNPVScMKGH0zn0_gehO-96" value="&lt;span style=&quot;text-wrap: wrap;&quot;&gt;name&lt;/span&gt;&lt;div&gt;&lt;span style=&quot;text-wrap: wrap;&quot;&gt;date&lt;/span&gt;&lt;div style=&quot;text-wrap: wrap;&quot;&gt;price&lt;/div&gt;&lt;/div&gt;" style="align=left;strokeColor=none;fillColor=none;spacingLeft=4;fontSize=12;verticalAlign=top;resizable=0;rotatable=0;part=1;html=1;" vertex="1" parent="sUNPVScMKGH0zn0_gehO-95">
          <mxGeometry y="50" width="90" height="70" as="geometry" />
        </mxCell>
        <mxCell id="sUNPVScMKGH0zn0_gehO-97" value="&lt;span style=&quot;font-size: 12px;&quot;&gt;E8 Counseling&lt;/span&gt;" style="swimlane;childLayout=stackLayout;horizontal=1;startSize=50;horizontalStack=0;rounded=1;fontSize=14;fontStyle=0;strokeWidth=2;resizeParent=0;resizeLast=1;shadow=0;dashed=0;align=center;arcSize=4;whiteSpace=wrap;html=1;" vertex="1" parent="1">
          <mxGeometry x="-30" y="-270" width="120" height="180" as="geometry" />
        </mxCell>
        <mxCell id="sUNPVScMKGH0zn0_gehO-98" value="&lt;div&gt;&lt;span style=&quot;text-wrap: wrap;&quot;&gt;counseling_id(pk)&lt;/span&gt;&lt;/div&gt;&lt;span style=&quot;text-wrap: wrap;&quot;&gt;advisor_name&lt;/span&gt;&lt;br&gt;&lt;div&gt;&lt;span style=&quot;text-wrap: wrap;&quot;&gt;date&lt;/span&gt;&lt;div style=&quot;text-wrap: wrap;&quot;&gt;&lt;span style=&quot;background-color: initial;&quot;&gt;hour&lt;/span&gt;&lt;/div&gt;&lt;div style=&quot;text-wrap: wrap;&quot;&gt;location&lt;/div&gt;&lt;div style=&quot;text-wrap: wrap;&quot;&gt;duration&lt;/div&gt;&lt;div style=&quot;text-wrap: wrap;&quot;&gt;speciality&lt;/div&gt;&lt;div style=&quot;text-wrap: wrap;&quot;&gt;availability&lt;/div&gt;&lt;/div&gt;" style="align=left;strokeColor=none;fillColor=none;spacingLeft=4;fontSize=12;verticalAlign=top;resizable=0;rotatable=0;part=1;html=1;" vertex="1" parent="sUNPVScMKGH0zn0_gehO-97">
          <mxGeometry y="50" width="120" height="130" as="geometry" />
        </mxCell>
        <mxCell id="sUNPVScMKGH0zn0_gehO-99" value="&lt;span style=&quot;font-size: 12px;&quot;&gt;E9 Resident&lt;/span&gt;" style="swimlane;childLayout=stackLayout;horizontal=1;startSize=50;horizontalStack=0;rounded=1;fontSize=14;fontStyle=0;strokeWidth=2;resizeParent=0;resizeLast=1;shadow=0;dashed=0;align=center;arcSize=4;whiteSpace=wrap;html=1;" vertex="1" parent="1">
          <mxGeometry x="440" y="-90" width="120" height="160" as="geometry" />
        </mxCell>
        <mxCell id="sUNPVScMKGH0zn0_gehO-100" value="&lt;span style=&quot;text-wrap: wrap;&quot;&gt;resident_id(pk)&lt;br&gt;name&lt;/span&gt;&lt;div&gt;&lt;span style=&quot;text-wrap: wrap;&quot;&gt;email&lt;/span&gt;&lt;/div&gt;&lt;div&gt;&lt;span style=&quot;text-wrap: wrap;&quot;&gt;number_phone&lt;/span&gt;&lt;/div&gt;&lt;div&gt;&lt;span style=&quot;text-wrap: wrap;&quot;&gt;number_document&lt;/span&gt;&lt;/div&gt;" style="align=left;strokeColor=none;fillColor=none;spacingLeft=4;fontSize=12;verticalAlign=top;resizable=0;rotatable=0;part=1;html=1;" vertex="1" parent="sUNPVScMKGH0zn0_gehO-99">
          <mxGeometry y="50" width="120" height="110" as="geometry" />
        </mxCell>
        <mxCell id="sUNPVScMKGH0zn0_gehO-101" value="&lt;span style=&quot;font-size: 12px;&quot;&gt;E10 Visitor&lt;/span&gt;" style="swimlane;childLayout=stackLayout;horizontal=1;startSize=50;horizontalStack=0;rounded=1;fontSize=14;fontStyle=0;strokeWidth=2;resizeParent=0;resizeLast=1;shadow=0;dashed=0;align=center;arcSize=4;whiteSpace=wrap;html=1;" vertex="1" parent="1">
          <mxGeometry x="430" y="170" width="120" height="160" as="geometry" />
        </mxCell>
        <mxCell id="sUNPVScMKGH0zn0_gehO-102" value="&lt;div&gt;&lt;span style=&quot;text-wrap: wrap;&quot;&gt;visitor_id(pk)&lt;/span&gt;&lt;/div&gt;&lt;span style=&quot;text-wrap: wrap;&quot;&gt;name&lt;/span&gt;&lt;div&gt;&lt;span style=&quot;text-wrap: wrap;&quot;&gt;email&lt;/span&gt;&lt;/div&gt;&lt;div&gt;&lt;span style=&quot;text-wrap: wrap;&quot;&gt;number_phone&lt;/span&gt;&lt;/div&gt;&lt;div&gt;&lt;span style=&quot;text-wrap: wrap;&quot;&gt;number_document&lt;/span&gt;&lt;/div&gt;&lt;div&gt;status&lt;/div&gt;" style="align=left;strokeColor=none;fillColor=none;spacingLeft=4;fontSize=12;verticalAlign=top;resizable=0;rotatable=0;part=1;html=1;" vertex="1" parent="sUNPVScMKGH0zn0_gehO-101">
          <mxGeometry y="50" width="120" height="110" as="geometry" />
        </mxCell>
        <mxCell id="sUNPVScMKGH0zn0_gehO-103" value="&lt;span style=&quot;font-size: 12px;&quot;&gt;E11&lt;/span&gt;&lt;div&gt;&lt;span style=&quot;font-size: 12px;&quot;&gt;PropertyManager&lt;/span&gt;&lt;/div&gt;" style="swimlane;childLayout=stackLayout;horizontal=1;startSize=50;horizontalStack=0;rounded=1;fontSize=14;fontStyle=0;strokeWidth=2;resizeParent=0;resizeLast=1;shadow=0;dashed=0;align=center;arcSize=4;whiteSpace=wrap;html=1;" vertex="1" parent="1">
          <mxGeometry x="430" y="360" width="150" height="160" as="geometry" />
        </mxCell>
        <mxCell id="sUNPVScMKGH0zn0_gehO-104" value="&lt;div&gt;&lt;span style=&quot;text-wrap: wrap;&quot;&gt;propertyManager_id(pk)&lt;/span&gt;&lt;/div&gt;&lt;span style=&quot;text-wrap: wrap;&quot;&gt;name&lt;/span&gt;&lt;div&gt;&lt;span style=&quot;text-wrap: wrap;&quot;&gt;email&lt;/span&gt;&lt;/div&gt;&lt;div&gt;&lt;span style=&quot;text-wrap: wrap;&quot;&gt;number_phone&lt;/span&gt;&lt;/div&gt;&lt;div&gt;&lt;span style=&quot;text-wrap: wrap;&quot;&gt;number_document&lt;/span&gt;&lt;/div&gt;&lt;div&gt;location&lt;/div&gt;" style="align=left;strokeColor=none;fillColor=none;spacingLeft=4;fontSize=12;verticalAlign=top;resizable=0;rotatable=0;part=1;html=1;" vertex="1" parent="sUNPVScMKGH0zn0_gehO-103">
          <mxGeometry y="50" width="150" height="110" as="geometry" />
        </mxCell>
        <mxCell id="sUNPVScMKGH0zn0_gehO-105" value="&lt;span style=&quot;font-size: 12px;&quot;&gt;E12 Rerport&lt;/span&gt;" style="swimlane;childLayout=stackLayout;horizontal=1;startSize=50;horizontalStack=0;rounded=1;fontSize=14;fontStyle=0;strokeWidth=2;resizeParent=0;resizeLast=1;shadow=0;dashed=0;align=center;arcSize=4;whiteSpace=wrap;html=1;" vertex="1" parent="1">
          <mxGeometry x="450" y="595" width="120" height="160" as="geometry" />
        </mxCell>
        <mxCell id="sUNPVScMKGH0zn0_gehO-106" value="&lt;span style=&quot;text-wrap: wrap;&quot;&gt;name&lt;/span&gt;&lt;div&gt;&lt;span style=&quot;text-wrap: wrap;&quot;&gt;type&lt;/span&gt;&lt;/div&gt;&lt;div&gt;&lt;span style=&quot;text-wrap: wrap;&quot;&gt;description&lt;/span&gt;&lt;/div&gt;&lt;div&gt;&lt;span style=&quot;text-wrap: wrap;&quot;&gt;date&lt;/span&gt;&lt;/div&gt;&lt;div&gt;&lt;span style=&quot;text-wrap: wrap;&quot;&gt;status&lt;/span&gt;&lt;/div&gt;" style="align=left;strokeColor=none;fillColor=none;spacingLeft=4;fontSize=12;verticalAlign=top;resizable=0;rotatable=0;part=1;html=1;" vertex="1" parent="sUNPVScMKGH0zn0_gehO-105">
          <mxGeometry y="50" width="120" height="110" as="geometry" />
        </mxCell>
        <mxCell id="sUNPVScMKGH0zn0_gehO-107" value="&lt;span style=&quot;font-size: 12px;&quot;&gt;E13 Deliveries&lt;/span&gt;" style="swimlane;childLayout=stackLayout;horizontal=1;startSize=50;horizontalStack=0;rounded=1;fontSize=14;fontStyle=0;strokeWidth=2;resizeParent=0;resizeLast=1;shadow=0;dashed=0;align=center;arcSize=4;whiteSpace=wrap;html=1;" vertex="1" parent="1">
          <mxGeometry x="130" y="755" width="120" height="160" as="geometry" />
        </mxCell>
        <mxCell id="sUNPVScMKGH0zn0_gehO-108" value="&lt;span style=&quot;text-wrap: wrap;&quot;&gt;name&lt;/span&gt;&lt;div&gt;&lt;span style=&quot;text-wrap: wrap;&quot;&gt;type&lt;/span&gt;&lt;/div&gt;&lt;div&gt;&lt;span style=&quot;text-wrap: wrap;&quot;&gt;description&lt;/span&gt;&lt;/div&gt;&lt;div&gt;&lt;span style=&quot;text-wrap: wrap;&quot;&gt;date&lt;/span&gt;&lt;/div&gt;&lt;div&gt;&lt;span style=&quot;text-wrap: wrap;&quot;&gt;status&lt;/span&gt;&lt;/div&gt;" style="align=left;strokeColor=none;fillColor=none;spacingLeft=4;fontSize=12;verticalAlign=top;resizable=0;rotatable=0;part=1;html=1;" vertex="1" parent="sUNPVScMKGH0zn0_gehO-107">
          <mxGeometry y="50" width="120" height="110" as="geometry" />
        </mxCell>
        <mxCell id="sUNPVScMKGH0zn0_gehO-109" value="&lt;span style=&quot;font-size: 12px;&quot;&gt;E14 Reminders&lt;/span&gt;" style="swimlane;childLayout=stackLayout;horizontal=1;startSize=50;horizontalStack=0;rounded=1;fontSize=14;fontStyle=0;strokeWidth=2;resizeParent=0;resizeLast=1;shadow=0;dashed=0;align=center;arcSize=4;whiteSpace=wrap;html=1;" vertex="1" parent="1">
          <mxGeometry x="530" y="860" width="120" height="160" as="geometry" />
        </mxCell>
        <mxCell id="sUNPVScMKGH0zn0_gehO-110" value="&lt;span style=&quot;text-wrap: wrap;&quot;&gt;name&lt;/span&gt;&lt;div&gt;&lt;span style=&quot;text-wrap: wrap;&quot;&gt;type&lt;/span&gt;&lt;/div&gt;&lt;div&gt;&lt;span style=&quot;text-wrap: wrap;&quot;&gt;description&lt;/span&gt;&lt;/div&gt;&lt;div&gt;&lt;span style=&quot;text-wrap: wrap;&quot;&gt;date&lt;/span&gt;&lt;/div&gt;&lt;div&gt;&lt;span style=&quot;text-wrap: wrap;&quot;&gt;hour&lt;/span&gt;&lt;/div&gt;&lt;div&gt;&lt;span style=&quot;text-wrap: wrap;&quot;&gt;location&lt;/span&gt;&lt;/div&gt;&lt;div&gt;&lt;span style=&quot;text-wrap: wrap;&quot;&gt;status&lt;/span&gt;&lt;/div&gt;" style="align=left;strokeColor=none;fillColor=none;spacingLeft=4;fontSize=12;verticalAlign=top;resizable=0;rotatable=0;part=1;html=1;" vertex="1" parent="sUNPVScMKGH0zn0_gehO-109">
          <mxGeometry y="50" width="120" height="110" as="geometry" />
        </mxCell>
        <mxCell id="sUNPVScMKGH0zn0_gehO-111" value="&lt;span style=&quot;font-size: 12px;&quot;&gt;E15 Apartment&lt;/span&gt;" style="swimlane;childLayout=stackLayout;horizontal=1;startSize=50;horizontalStack=0;rounded=1;fontSize=14;fontStyle=0;strokeWidth=2;resizeParent=0;resizeLast=1;shadow=0;dashed=0;align=center;arcSize=4;whiteSpace=wrap;html=1;" vertex="1" parent="1">
          <mxGeometry x="-160" y="-50" width="120" height="200" as="geometry" />
        </mxCell>
        <mxCell id="sUNPVScMKGH0zn0_gehO-112" value="&lt;span style=&quot;text-wrap: wrap;&quot;&gt;number&lt;/span&gt;&lt;div&gt;&lt;span style=&quot;text-wrap: wrap;&quot;&gt;size&lt;/span&gt;&lt;div style=&quot;text-wrap: wrap;&quot;&gt;price&lt;/div&gt;&lt;div style=&quot;text-wrap: wrap;&quot;&gt;location&lt;/div&gt;&lt;div style=&quot;text-wrap: wrap;&quot;&gt;status&lt;/div&gt;&lt;div style=&quot;text-wrap: wrap;&quot;&gt;number_room&lt;/div&gt;&lt;div style=&quot;text-wrap: wrap;&quot;&gt;number_bathroom&lt;/div&gt;&lt;div style=&quot;text-wrap: wrap;&quot;&gt;hall&lt;/div&gt;&lt;div style=&quot;text-wrap: wrap;&quot;&gt;kitchen&lt;/div&gt;&lt;/div&gt;" style="align=left;strokeColor=none;fillColor=none;spacingLeft=4;fontSize=12;verticalAlign=top;resizable=0;rotatable=0;part=1;html=1;" vertex="1" parent="sUNPVScMKGH0zn0_gehO-111">
          <mxGeometry y="50" width="120" height="150" as="geometry" />
        </mxCell>
        <mxCell id="sUNPVScMKGH0zn0_gehO-113" value="&lt;span style=&quot;font-size: 12px;&quot;&gt;E16 BLock&lt;/span&gt;" style="swimlane;childLayout=stackLayout;horizontal=1;startSize=50;horizontalStack=0;rounded=1;fontSize=14;fontStyle=0;strokeWidth=2;resizeParent=0;resizeLast=1;shadow=0;dashed=0;align=center;arcSize=4;whiteSpace=wrap;html=1;" vertex="1" parent="1">
          <mxGeometry x="-160" y="440" width="120" height="160" as="geometry" />
        </mxCell>
        <mxCell id="sUNPVScMKGH0zn0_gehO-114" value="&lt;span style=&quot;text-wrap: wrap;&quot;&gt;name&lt;/span&gt;&lt;div&gt;&lt;span style=&quot;text-wrap: wrap;&quot;&gt;number_apartments&lt;/span&gt;&lt;div style=&quot;text-wrap: wrap;&quot;&gt;floores_number&lt;/div&gt;&lt;/div&gt;" style="align=left;strokeColor=none;fillColor=none;spacingLeft=4;fontSize=12;verticalAlign=top;resizable=0;rotatable=0;part=1;html=1;" vertex="1" parent="sUNPVScMKGH0zn0_gehO-113">
          <mxGeometry y="50" width="120" height="110" as="geometry" />
        </mxCell>
        <mxCell id="sUNPVScMKGH0zn0_gehO-115" value="&lt;span style=&quot;font-size: 12px;&quot;&gt;E17 Payment&lt;/span&gt;" style="swimlane;childLayout=stackLayout;horizontal=1;startSize=50;horizontalStack=0;rounded=1;fontSize=14;fontStyle=0;strokeWidth=2;resizeParent=0;resizeLast=1;shadow=0;dashed=0;align=center;arcSize=4;whiteSpace=wrap;html=1;" vertex="1" parent="1">
          <mxGeometry x="-210" y="210" width="120" height="160" as="geometry" />
        </mxCell>
        <mxCell id="sUNPVScMKGH0zn0_gehO-116" value="&lt;div&gt;&lt;span style=&quot;text-wrap: wrap;&quot;&gt;name&lt;/span&gt;&lt;/div&gt;&lt;span style=&quot;text-wrap: wrap;&quot;&gt;status&lt;br&gt;&lt;/span&gt;&lt;span style=&quot;text-wrap: wrap;&quot;&gt;type&lt;/span&gt;&lt;div style=&quot;text-wrap: wrap;&quot;&gt;&lt;span style=&quot;background-color: initial;&quot;&gt;price&lt;/span&gt;&lt;/div&gt;&lt;div style=&quot;text-wrap: wrap;&quot;&gt;date&lt;/div&gt;&lt;div style=&quot;text-wrap: wrap;&quot;&gt;payment_method&lt;/div&gt;" style="align=left;strokeColor=none;fillColor=none;spacingLeft=4;fontSize=12;verticalAlign=top;resizable=0;rotatable=0;part=1;html=1;" vertex="1" parent="sUNPVScMKGH0zn0_gehO-115">
          <mxGeometry y="50" width="120" height="110" as="geometry" />
        </mxCell>
        <mxCell id="sUNPVScMKGH0zn0_gehO-117" value="" style="edgeStyle=entityRelationEdgeStyle;fontSize=12;html=1;endArrow=ERmandOne;startArrow=ERmandOne;rounded=0;entryX=1;entryY=0.25;entryDx=0;entryDy=0;exitX=0;exitY=0.25;exitDx=0;exitDy=0;" edge="1" parent="1" source="sUNPVScMKGH0zn0_gehO-99" target="sUNPVScMKGH0zn0_gehO-83">
          <mxGeometry width="100" height="100" relative="1" as="geometry">
            <mxPoint x="730" y="420" as="sourcePoint" />
            <mxPoint x="830" y="320" as="targetPoint" />
          </mxGeometry>
        </mxCell>
        <mxCell id="sUNPVScMKGH0zn0_gehO-118" value="" style="edgeStyle=entityRelationEdgeStyle;fontSize=12;html=1;endArrow=ERzeroToOne;endFill=1;rounded=0;exitX=1;exitY=0.25;exitDx=0;exitDy=0;entryX=0;entryY=0.25;entryDx=0;entryDy=0;" edge="1" parent="1" source="sUNPVScMKGH0zn0_gehO-83" target="sUNPVScMKGH0zn0_gehO-102">
          <mxGeometry width="100" height="100" relative="1" as="geometry">
            <mxPoint x="490" y="340" as="sourcePoint" />
            <mxPoint x="590" y="240" as="targetPoint" />
            <Array as="points">
              <mxPoint x="460" y="330" />
              <mxPoint x="560" y="320" />
              <mxPoint x="530" y="330" />
            </Array>
          </mxGeometry>
        </mxCell>
        <mxCell id="sUNPVScMKGH0zn0_gehO-119" value="" style="edgeStyle=entityRelationEdgeStyle;fontSize=12;html=1;endArrow=ERzeroToMany;endFill=1;rounded=0;entryX=0;entryY=0.5;entryDx=0;entryDy=0;exitX=1;exitY=0.25;exitDx=0;exitDy=0;" edge="1" parent="1" source="sUNPVScMKGH0zn0_gehO-83" target="sUNPVScMKGH0zn0_gehO-103">
          <mxGeometry width="100" height="100" relative="1" as="geometry">
            <mxPoint x="790" y="420" as="sourcePoint" />
            <mxPoint x="890" y="320" as="targetPoint" />
          </mxGeometry>
        </mxCell>
        <mxCell id="sUNPVScMKGH0zn0_gehO-120" value="" style="edgeStyle=entityRelationEdgeStyle;fontSize=12;html=1;endArrow=ERzeroToMany;endFill=1;rounded=0;exitX=1;exitY=0.25;exitDx=0;exitDy=0;entryX=0;entryY=0.25;entryDx=0;entryDy=0;" edge="1" parent="1" source="sUNPVScMKGH0zn0_gehO-83" target="sUNPVScMKGH0zn0_gehO-105">
          <mxGeometry width="100" height="100" relative="1" as="geometry">
            <mxPoint x="820" y="420" as="sourcePoint" />
            <mxPoint x="920" y="320" as="targetPoint" />
          </mxGeometry>
        </mxCell>
        <mxCell id="sUNPVScMKGH0zn0_gehO-121" value="" style="edgeStyle=entityRelationEdgeStyle;fontSize=12;html=1;endArrow=ERzeroToMany;endFill=1;rounded=0;exitX=1;exitY=0.25;exitDx=0;exitDy=0;entryX=0;entryY=0.25;entryDx=0;entryDy=0;" edge="1" parent="1" source="sUNPVScMKGH0zn0_gehO-86" target="sUNPVScMKGH0zn0_gehO-92">
          <mxGeometry width="100" height="100" relative="1" as="geometry">
            <mxPoint x="1470" y="430" as="sourcePoint" />
            <mxPoint x="1570" y="330" as="targetPoint" />
          </mxGeometry>
        </mxCell>
        <mxCell id="sUNPVScMKGH0zn0_gehO-124" value="" style="edgeStyle=entityRelationEdgeStyle;fontSize=12;html=1;endArrow=ERoneToMany;startArrow=ERmandOne;rounded=0;entryX=1;entryY=0.25;entryDx=0;entryDy=0;" edge="1" parent="1" source="sUNPVScMKGH0zn0_gehO-85" target="sUNPVScMKGH0zn0_gehO-103">
          <mxGeometry width="100" height="100" relative="1" as="geometry">
            <mxPoint x="820" y="420" as="sourcePoint" />
            <mxPoint x="920" y="320" as="targetPoint" />
          </mxGeometry>
        </mxCell>
        <mxCell id="sUNPVScMKGH0zn0_gehO-125" value="" style="edgeStyle=entityRelationEdgeStyle;fontSize=12;html=1;endArrow=ERzeroToMany;startArrow=ERmandOne;rounded=0;entryX=1;entryY=0.25;entryDx=0;entryDy=0;exitX=0;exitY=0.75;exitDx=0;exitDy=0;" edge="1" parent="1" source="sUNPVScMKGH0zn0_gehO-86" target="sUNPVScMKGH0zn0_gehO-105">
          <mxGeometry width="100" height="100" relative="1" as="geometry">
            <mxPoint x="820" y="420" as="sourcePoint" />
            <mxPoint x="920" y="320" as="targetPoint" />
          </mxGeometry>
        </mxCell>
        <mxCell id="sUNPVScMKGH0zn0_gehO-126" value="" style="edgeStyle=entityRelationEdgeStyle;fontSize=12;html=1;endArrow=ERzeroToMany;startArrow=ERmandOne;rounded=0;exitX=1;exitY=0.25;exitDx=0;exitDy=0;entryX=0;entryY=0.5;entryDx=0;entryDy=0;" edge="1" parent="1" source="sUNPVScMKGH0zn0_gehO-88" target="sUNPVScMKGH0zn0_gehO-92">
          <mxGeometry width="100" height="100" relative="1" as="geometry">
            <mxPoint x="1470" y="430" as="sourcePoint" />
            <mxPoint x="1480" y="300" as="targetPoint" />
          </mxGeometry>
        </mxCell>
        <mxCell id="sUNPVScMKGH0zn0_gehO-129" value="" style="edgeStyle=entityRelationEdgeStyle;fontSize=12;html=1;endArrow=ERoneToMany;startArrow=ERmandOne;rounded=0;exitX=0;exitY=0.5;exitDx=0;exitDy=0;entryX=0.994;entryY=0.109;entryDx=0;entryDy=0;entryPerimeter=0;" edge="1" parent="1" source="sUNPVScMKGH0zn0_gehO-88" target="sUNPVScMKGH0zn0_gehO-104">
          <mxGeometry width="100" height="100" relative="1" as="geometry">
            <mxPoint x="820" y="420" as="sourcePoint" />
            <mxPoint x="920" y="320" as="targetPoint" />
          </mxGeometry>
        </mxCell>
        <mxCell id="sUNPVScMKGH0zn0_gehO-130" value="" style="edgeStyle=entityRelationEdgeStyle;fontSize=12;html=1;endArrow=ERzeroToMany;startArrow=ERmandOne;rounded=0;entryX=1.026;entryY=0.16;entryDx=0;entryDy=0;exitX=0;exitY=0.75;exitDx=0;exitDy=0;entryPerimeter=0;" edge="1" parent="1" source="sUNPVScMKGH0zn0_gehO-88" target="sUNPVScMKGH0zn0_gehO-106">
          <mxGeometry width="100" height="100" relative="1" as="geometry">
            <mxPoint x="820" y="420" as="sourcePoint" />
            <mxPoint x="920" y="320" as="targetPoint" />
          </mxGeometry>
        </mxCell>
        <mxCell id="sUNPVScMKGH0zn0_gehO-131" value="" style="edgeStyle=entityRelationEdgeStyle;fontSize=12;html=1;endArrow=ERzeroToMany;startArrow=ERmandOne;rounded=0;entryX=0;entryY=0.75;entryDx=0;entryDy=0;exitX=1;exitY=0.25;exitDx=0;exitDy=0;" edge="1" parent="1" source="sUNPVScMKGH0zn0_gehO-89" target="sUNPVScMKGH0zn0_gehO-92">
          <mxGeometry width="100" height="100" relative="1" as="geometry">
            <mxPoint x="1390" y="388" as="sourcePoint" />
            <mxPoint x="1430" y="148" as="targetPoint" />
          </mxGeometry>
        </mxCell>
        <mxCell id="sUNPVScMKGH0zn0_gehO-134" value="" style="edgeStyle=entityRelationEdgeStyle;fontSize=12;html=1;endArrow=ERoneToMany;startArrow=ERmandOne;rounded=0;exitX=0;exitY=0.5;exitDx=0;exitDy=0;entryX=1;entryY=0.75;entryDx=0;entryDy=0;" edge="1" parent="1" source="sUNPVScMKGH0zn0_gehO-90" target="sUNPVScMKGH0zn0_gehO-104">
          <mxGeometry width="100" height="100" relative="1" as="geometry">
            <mxPoint x="910" y="490" as="sourcePoint" />
            <mxPoint x="910" y="570" as="targetPoint" />
          </mxGeometry>
        </mxCell>
        <mxCell id="sUNPVScMKGH0zn0_gehO-135" value="" style="edgeStyle=entityRelationEdgeStyle;fontSize=12;html=1;endArrow=ERzeroToMany;startArrow=ERmandOne;rounded=0;exitX=0;exitY=0.75;exitDx=0;exitDy=0;entryX=1;entryY=0.5;entryDx=0;entryDy=0;" edge="1" parent="1" source="sUNPVScMKGH0zn0_gehO-90" target="sUNPVScMKGH0zn0_gehO-106">
          <mxGeometry width="100" height="100" relative="1" as="geometry">
            <mxPoint x="910" y="490" as="sourcePoint" />
            <mxPoint x="1010" y="390" as="targetPoint" />
          </mxGeometry>
        </mxCell>
        <mxCell id="sUNPVScMKGH0zn0_gehO-140" value="" style="edgeStyle=entityRelationEdgeStyle;fontSize=12;html=1;endArrow=ERoneToMany;startArrow=ERmandOne;rounded=0;entryX=1;entryY=0;entryDx=0;entryDy=0;exitX=0;exitY=0.25;exitDx=0;exitDy=0;" edge="1" parent="1" source="sUNPVScMKGH0zn0_gehO-100" target="sUNPVScMKGH0zn0_gehO-94">
          <mxGeometry width="100" height="100" relative="1" as="geometry">
            <mxPoint x="150" y="650" as="sourcePoint" />
            <mxPoint x="250" y="550" as="targetPoint" />
            <Array as="points">
              <mxPoint x="-540" y="910" />
            </Array>
          </mxGeometry>
        </mxCell>
        <mxCell id="sUNPVScMKGH0zn0_gehO-141" value="" style="edgeStyle=entityRelationEdgeStyle;fontSize=12;html=1;endArrow=ERoneToMany;startArrow=ERmandOne;rounded=0;entryX=1;entryY=0.25;entryDx=0;entryDy=0;exitX=0;exitY=0.25;exitDx=0;exitDy=0;" edge="1" parent="1" source="sUNPVScMKGH0zn0_gehO-103" target="sUNPVScMKGH0zn0_gehO-94">
          <mxGeometry width="100" height="100" relative="1" as="geometry">
            <mxPoint x="260" y="570" as="sourcePoint" />
            <mxPoint x="270" y="460" as="targetPoint" />
            <Array as="points">
              <mxPoint x="-490" y="942" />
            </Array>
          </mxGeometry>
        </mxCell>
        <mxCell id="sUNPVScMKGH0zn0_gehO-142" value="" style="edgeStyle=entityRelationEdgeStyle;fontSize=12;html=1;endArrow=ERzeroToMany;startArrow=ERmandOne;rounded=0;entryX=0;entryY=0.25;entryDx=0;entryDy=0;" edge="1" parent="1" source="sUNPVScMKGH0zn0_gehO-94" target="sUNPVScMKGH0zn0_gehO-106">
          <mxGeometry width="100" height="100" relative="1" as="geometry">
            <mxPoint x="1050" y="610" as="sourcePoint" />
            <mxPoint x="1150" y="510" as="targetPoint" />
          </mxGeometry>
        </mxCell>
        <mxCell id="sUNPVScMKGH0zn0_gehO-143" value="" style="edgeStyle=entityRelationEdgeStyle;fontSize=12;html=1;endArrow=ERoneToMany;startArrow=ERmandOne;rounded=0;entryX=0;entryY=0.25;entryDx=0;entryDy=0;exitX=1;exitY=0.75;exitDx=0;exitDy=0;" edge="1" parent="1" source="sUNPVScMKGH0zn0_gehO-94" target="sUNPVScMKGH0zn0_gehO-109">
          <mxGeometry width="100" height="100" relative="1" as="geometry">
            <mxPoint x="220" y="920" as="sourcePoint" />
            <mxPoint x="320" y="820" as="targetPoint" />
          </mxGeometry>
        </mxCell>
        <mxCell id="sUNPVScMKGH0zn0_gehO-144" value="" style="edgeStyle=entityRelationEdgeStyle;fontSize=12;html=1;endArrow=ERmandOne;startArrow=ERmandOne;rounded=0;exitX=1;exitY=0.25;exitDx=0;exitDy=0;entryX=0;entryY=0.5;entryDx=0;entryDy=0;" edge="1" parent="1" source="sUNPVScMKGH0zn0_gehO-116" target="sUNPVScMKGH0zn0_gehO-94">
          <mxGeometry width="100" height="100" relative="1" as="geometry">
            <mxPoint x="590" y="460" as="sourcePoint" />
            <mxPoint x="690" y="360" as="targetPoint" />
          </mxGeometry>
        </mxCell>
        <mxCell id="sUNPVScMKGH0zn0_gehO-145" value="" style="edgeStyle=entityRelationEdgeStyle;fontSize=12;html=1;endArrow=ERoneToMany;startArrow=ERmandOne;rounded=0;entryX=1;entryY=0.25;entryDx=0;entryDy=0;exitX=0;exitY=0.5;exitDx=0;exitDy=0;" edge="1" parent="1" source="sUNPVScMKGH0zn0_gehO-100" target="sUNPVScMKGH0zn0_gehO-95">
          <mxGeometry width="100" height="100" relative="1" as="geometry">
            <mxPoint x="420" y="138" as="sourcePoint" />
            <mxPoint x="230" y="410" as="targetPoint" />
            <Array as="points">
              <mxPoint x="-530" y="920" />
              <mxPoint x="240" y="610" />
            </Array>
          </mxGeometry>
        </mxCell>
        <mxCell id="sUNPVScMKGH0zn0_gehO-146" value="" style="edgeStyle=entityRelationEdgeStyle;fontSize=12;html=1;endArrow=ERoneToMany;startArrow=ERmandOne;rounded=0;exitX=1;exitY=0.5;exitDx=0;exitDy=0;entryX=0;entryY=0.5;entryDx=0;entryDy=0;" edge="1" parent="1" source="sUNPVScMKGH0zn0_gehO-96" target="sUNPVScMKGH0zn0_gehO-106">
          <mxGeometry width="100" height="100" relative="1" as="geometry">
            <mxPoint x="590" y="460" as="sourcePoint" />
            <mxPoint x="690" y="360" as="targetPoint" />
          </mxGeometry>
        </mxCell>
        <mxCell id="sUNPVScMKGH0zn0_gehO-147" value="" style="edgeStyle=entityRelationEdgeStyle;fontSize=12;html=1;endArrow=ERoneToMany;startArrow=ERmandOne;rounded=0;exitX=1;exitY=0.75;exitDx=0;exitDy=0;entryX=0;entryY=0.25;entryDx=0;entryDy=0;" edge="1" parent="1" source="sUNPVScMKGH0zn0_gehO-96" target="sUNPVScMKGH0zn0_gehO-110">
          <mxGeometry width="100" height="100" relative="1" as="geometry">
            <mxPoint x="220" y="765" as="sourcePoint" />
            <mxPoint x="410" y="790" as="targetPoint" />
          </mxGeometry>
        </mxCell>
        <mxCell id="sUNPVScMKGH0zn0_gehO-148" value="" style="edgeStyle=entityRelationEdgeStyle;fontSize=12;html=1;endArrow=ERmandOne;startArrow=ERmandOne;rounded=0;exitX=1;exitY=0.5;exitDx=0;exitDy=0;entryX=0;entryY=0;entryDx=0;entryDy=0;" edge="1" parent="1" source="sUNPVScMKGH0zn0_gehO-116" target="sUNPVScMKGH0zn0_gehO-96">
          <mxGeometry width="100" height="100" relative="1" as="geometry">
            <mxPoint x="-30" y="318" as="sourcePoint" />
            <mxPoint x="110" y="465" as="targetPoint" />
          </mxGeometry>
        </mxCell>
        <mxCell id="sUNPVScMKGH0zn0_gehO-150" value="" style="edgeStyle=entityRelationEdgeStyle;fontSize=12;html=1;endArrow=ERzeroToMany;startArrow=ERmandOne;rounded=0;" edge="1" parent="1" source="sUNPVScMKGH0zn0_gehO-99" target="sUNPVScMKGH0zn0_gehO-102">
          <mxGeometry width="100" height="100" relative="1" as="geometry">
            <mxPoint x="460" y="460" as="sourcePoint" />
            <mxPoint x="560" y="360" as="targetPoint" />
          </mxGeometry>
        </mxCell>
        <mxCell id="sUNPVScMKGH0zn0_gehO-151" value="" style="edgeStyle=entityRelationEdgeStyle;fontSize=12;html=1;endArrow=ERzeroToMany;startArrow=ERmandOne;rounded=0;" edge="1" parent="1" source="sUNPVScMKGH0zn0_gehO-99" target="sUNPVScMKGH0zn0_gehO-105">
          <mxGeometry width="100" height="100" relative="1" as="geometry">
            <mxPoint x="460" y="460" as="sourcePoint" />
            <mxPoint x="560" y="360" as="targetPoint" />
          </mxGeometry>
        </mxCell>
        <mxCell id="sUNPVScMKGH0zn0_gehO-152" value="" style="edgeStyle=entityRelationEdgeStyle;fontSize=12;html=1;endArrow=ERzeroToMany;startArrow=ERmandOne;rounded=0;exitX=0;exitY=0.75;exitDx=0;exitDy=0;" edge="1" parent="1" source="sUNPVScMKGH0zn0_gehO-100" target="sUNPVScMKGH0zn0_gehO-108">
          <mxGeometry width="100" height="100" relative="1" as="geometry">
            <mxPoint x="580" y="460" as="sourcePoint" />
            <mxPoint x="680" y="360" as="targetPoint" />
          </mxGeometry>
        </mxCell>
        <mxCell id="sUNPVScMKGH0zn0_gehO-153" value="" style="edgeStyle=entityRelationEdgeStyle;fontSize=12;html=1;endArrow=ERzeroToMany;startArrow=ERmandOne;rounded=0;" edge="1" parent="1" source="sUNPVScMKGH0zn0_gehO-99" target="sUNPVScMKGH0zn0_gehO-110">
          <mxGeometry width="100" height="100" relative="1" as="geometry">
            <mxPoint x="580" y="550" as="sourcePoint" />
            <mxPoint x="800" y="930" as="targetPoint" />
          </mxGeometry>
        </mxCell>
        <mxCell id="sUNPVScMKGH0zn0_gehO-154" value="" style="edgeStyle=entityRelationEdgeStyle;fontSize=12;html=1;endArrow=ERmandOne;startArrow=ERmandOne;rounded=0;" edge="1" parent="1" source="sUNPVScMKGH0zn0_gehO-111" target="sUNPVScMKGH0zn0_gehO-99">
          <mxGeometry width="100" height="100" relative="1" as="geometry">
            <mxPoint x="580" y="180" as="sourcePoint" />
            <mxPoint x="680" y="80" as="targetPoint" />
          </mxGeometry>
        </mxCell>
        <mxCell id="sUNPVScMKGH0zn0_gehO-155" value="" style="edgeStyle=entityRelationEdgeStyle;fontSize=12;html=1;endArrow=ERoneToMany;startArrow=ERmandOne;rounded=0;entryX=1;entryY=0.75;entryDx=0;entryDy=0;exitX=0;exitY=1;exitDx=0;exitDy=0;" edge="1" parent="1" source="sUNPVScMKGH0zn0_gehO-100" target="sUNPVScMKGH0zn0_gehO-116">
          <mxGeometry width="100" height="100" relative="1" as="geometry">
            <mxPoint x="580" y="380" as="sourcePoint" />
            <mxPoint x="680" y="280" as="targetPoint" />
            <Array as="points">
              <mxPoint x="230" y="300" />
              <mxPoint x="210" y="290" />
            </Array>
          </mxGeometry>
        </mxCell>
        <mxCell id="sUNPVScMKGH0zn0_gehO-156" value="" style="edgeStyle=entityRelationEdgeStyle;fontSize=12;html=1;endArrow=ERzeroToMany;startArrow=ERmandOne;rounded=0;exitX=0.5;exitY=1;exitDx=0;exitDy=0;entryX=0.75;entryY=0;entryDx=0;entryDy=0;" edge="1" parent="1" source="sUNPVScMKGH0zn0_gehO-104" target="sUNPVScMKGH0zn0_gehO-105">
          <mxGeometry width="100" height="100" relative="1" as="geometry">
            <mxPoint x="510" y="520" as="sourcePoint" />
            <mxPoint x="490" y="650" as="targetPoint" />
          </mxGeometry>
        </mxCell>
        <mxCell id="sUNPVScMKGH0zn0_gehO-157" value="" style="edgeStyle=entityRelationEdgeStyle;fontSize=12;html=1;endArrow=ERzeroToMany;startArrow=ERmandOne;rounded=0;exitX=1.002;exitY=0.634;exitDx=0;exitDy=0;exitPerimeter=0;" edge="1" parent="1" source="sUNPVScMKGH0zn0_gehO-104" target="sUNPVScMKGH0zn0_gehO-110">
          <mxGeometry width="100" height="100" relative="1" as="geometry">
            <mxPoint x="510" y="520" as="sourcePoint" />
            <mxPoint x="610" y="420" as="targetPoint" />
          </mxGeometry>
        </mxCell>
        <mxCell id="sUNPVScMKGH0zn0_gehO-158" value="" style="edgeStyle=entityRelationEdgeStyle;fontSize=12;html=1;endArrow=ERoneToMany;startArrow=ERmandOne;rounded=0;exitX=0;exitY=0.75;exitDx=0;exitDy=0;" edge="1" parent="1" source="sUNPVScMKGH0zn0_gehO-104" target="sUNPVScMKGH0zn0_gehO-114">
          <mxGeometry width="100" height="100" relative="1" as="geometry">
            <mxPoint x="-50" y="800" as="sourcePoint" />
            <mxPoint x="50" y="700" as="targetPoint" />
          </mxGeometry>
        </mxCell>
        <mxCell id="sUNPVScMKGH0zn0_gehO-159" value="" style="edgeStyle=entityRelationEdgeStyle;fontSize=12;html=1;endArrow=ERmandOne;startArrow=ERmandOne;rounded=0;entryX=0;entryY=0;entryDx=0;entryDy=0;exitX=1;exitY=0.25;exitDx=0;exitDy=0;" edge="1" parent="1" source="sUNPVScMKGH0zn0_gehO-93" target="sUNPVScMKGH0zn0_gehO-103">
          <mxGeometry width="100" height="100" relative="1" as="geometry">
            <mxPoint x="710" y="490" as="sourcePoint" />
            <mxPoint x="810" y="390" as="targetPoint" />
          </mxGeometry>
        </mxCell>
        <mxCell id="sUNPVScMKGH0zn0_gehO-160" value="" style="edgeStyle=entityRelationEdgeStyle;fontSize=12;html=1;endArrow=ERzeroToMany;startArrow=ERmandOne;rounded=0;entryX=0;entryY=0.75;entryDx=0;entryDy=0;" edge="1" parent="1" source="sUNPVScMKGH0zn0_gehO-107" target="sUNPVScMKGH0zn0_gehO-106">
          <mxGeometry width="100" height="100" relative="1" as="geometry">
            <mxPoint x="650" y="820" as="sourcePoint" />
            <mxPoint x="750" y="720" as="targetPoint" />
          </mxGeometry>
        </mxCell>
        <mxCell id="sUNPVScMKGH0zn0_gehO-161" value="" style="edgeStyle=entityRelationEdgeStyle;fontSize=12;html=1;endArrow=ERzeroToMany;startArrow=ERmandOne;rounded=0;entryX=0.026;entryY=0.101;entryDx=0;entryDy=0;entryPerimeter=0;" edge="1" parent="1" source="sUNPVScMKGH0zn0_gehO-113" target="sUNPVScMKGH0zn0_gehO-105">
          <mxGeometry width="100" height="100" relative="1" as="geometry">
            <mxPoint x="650" y="600" as="sourcePoint" />
            <mxPoint x="750" y="500" as="targetPoint" />
          </mxGeometry>
        </mxCell>
        <mxCell id="sUNPVScMKGH0zn0_gehO-162" value="" style="edgeStyle=entityRelationEdgeStyle;fontSize=12;html=1;endArrow=ERzeroToMany;startArrow=ERmandOne;rounded=0;" edge="1" parent="1" source="sUNPVScMKGH0zn0_gehO-115" target="sUNPVScMKGH0zn0_gehO-109">
          <mxGeometry width="100" height="100" relative="1" as="geometry">
            <mxPoint x="570" y="600" as="sourcePoint" />
            <mxPoint x="670" y="500" as="targetPoint" />
          </mxGeometry>
        </mxCell>
        <mxCell id="sUNPVScMKGH0zn0_gehO-163" value="" style="edgeStyle=entityRelationEdgeStyle;fontSize=12;html=1;endArrow=ERoneToMany;startArrow=ERmandOne;rounded=0;exitX=0.919;exitY=0.01;exitDx=0;exitDy=0;exitPerimeter=0;" edge="1" parent="1" source="sUNPVScMKGH0zn0_gehO-114" target="sUNPVScMKGH0zn0_gehO-112">
          <mxGeometry width="100" height="100" relative="1" as="geometry">
            <mxPoint x="590" y="630" as="sourcePoint" />
            <mxPoint x="690" y="530" as="targetPoint" />
          </mxGeometry>
        </mxCell>
        <mxCell id="sUNPVScMKGH0zn0_gehO-164" value="" style="edgeStyle=entityRelationEdgeStyle;fontSize=12;html=1;endArrow=ERmandOne;startArrow=ERmandOne;rounded=0;entryX=0;entryY=0.5;entryDx=0;entryDy=0;exitX=0;exitY=0;exitDx=0;exitDy=0;" edge="1" parent="1" source="sUNPVScMKGH0zn0_gehO-115" target="sUNPVScMKGH0zn0_gehO-112">
          <mxGeometry width="100" height="100" relative="1" as="geometry">
            <mxPoint x="590" y="400" as="sourcePoint" />
            <mxPoint x="690" y="300" as="targetPoint" />
          </mxGeometry>
        </mxCell>
        <mxCell id="sUNPVScMKGH0zn0_gehO-165" value="&lt;span style=&quot;font-size: 12px;&quot;&gt;E18&lt;/span&gt;&lt;div&gt;&lt;span style=&quot;font-size: 12px;&quot;&gt;Resident_Counseling&lt;/span&gt;&lt;div&gt;&lt;/div&gt;&lt;/div&gt;" style="swimlane;childLayout=stackLayout;horizontal=1;startSize=50;horizontalStack=0;rounded=1;fontSize=14;fontStyle=0;strokeWidth=2;resizeParent=0;resizeLast=1;shadow=0;dashed=0;align=center;arcSize=4;whiteSpace=wrap;html=1;" vertex="1" parent="1">
          <mxGeometry x="240" y="-250" width="120" height="160" as="geometry" />
        </mxCell>
        <mxCell id="sUNPVScMKGH0zn0_gehO-166" value="&lt;span style=&quot;text-wrap: wrap;&quot;&gt;resident(fk)&lt;/span&gt;&lt;div&gt;&lt;span style=&quot;text-wrap: wrap;&quot;&gt;counseling(fk)&lt;/span&gt;&lt;/div&gt;&lt;div&gt;&lt;span style=&quot;text-wrap: wrap;&quot;&gt;id(pk)&lt;/span&gt;&lt;/div&gt;&lt;div&gt;&lt;span style=&quot;text-wrap: wrap;&quot;&gt;salary&lt;/span&gt;&lt;/div&gt;" style="align=left;strokeColor=none;fillColor=none;spacingLeft=4;fontSize=12;verticalAlign=top;resizable=0;rotatable=0;part=1;html=1;" vertex="1" parent="sUNPVScMKGH0zn0_gehO-165">
          <mxGeometry y="50" width="120" height="110" as="geometry" />
        </mxCell>
        <mxCell id="sUNPVScMKGH0zn0_gehO-167" value="" style="edgeStyle=entityRelationEdgeStyle;fontSize=12;html=1;endArrow=ERzeroToMany;startArrow=ERmandOne;rounded=0;" edge="1" parent="1" source="sUNPVScMKGH0zn0_gehO-97" target="sUNPVScMKGH0zn0_gehO-165">
          <mxGeometry width="100" height="100" relative="1" as="geometry">
            <mxPoint x="70" y="-40" as="sourcePoint" />
            <mxPoint x="170" y="-140" as="targetPoint" />
          </mxGeometry>
        </mxCell>
        <mxCell id="sUNPVScMKGH0zn0_gehO-168" value="" style="edgeStyle=entityRelationEdgeStyle;fontSize=12;html=1;endArrow=ERzeroToMany;startArrow=ERmandOne;rounded=0;" edge="1" parent="1" source="sUNPVScMKGH0zn0_gehO-99" target="sUNPVScMKGH0zn0_gehO-165">
          <mxGeometry width="100" height="100" relative="1" as="geometry">
            <mxPoint x="410" y="30" as="sourcePoint" />
            <mxPoint x="510" y="-70" as="targetPoint" />
          </mxGeometry>
        </mxCell>
        <mxCell id="sUNPVScMKGH0zn0_gehO-169" value="&lt;span style=&quot;font-size: 12px;&quot;&gt;E19&lt;/span&gt;&lt;div&gt;&lt;span style=&quot;font-size: 12px;&quot;&gt;Resident_Event&lt;/span&gt;&lt;div&gt;&lt;/div&gt;&lt;/div&gt;" style="swimlane;childLayout=stackLayout;horizontal=1;startSize=50;horizontalStack=0;rounded=1;fontSize=14;fontStyle=0;strokeWidth=2;resizeParent=0;resizeLast=1;shadow=0;dashed=0;align=center;arcSize=4;whiteSpace=wrap;html=1;" vertex="1" parent="1">
          <mxGeometry x="1310" y="-370" width="110" height="140" as="geometry" />
        </mxCell>
        <mxCell id="sUNPVScMKGH0zn0_gehO-170" value="&lt;span style=&quot;text-wrap: wrap;&quot;&gt;resident(fk)&lt;/span&gt;&lt;div&gt;&lt;span style=&quot;text-wrap: wrap;&quot;&gt;event(fk)&lt;/span&gt;&lt;/div&gt;&lt;div&gt;&lt;span style=&quot;text-wrap: wrap;&quot;&gt;id(pk)&lt;/span&gt;&lt;/div&gt;&lt;div&gt;&lt;br&gt;&lt;/div&gt;" style="align=left;strokeColor=none;fillColor=none;spacingLeft=4;fontSize=12;verticalAlign=top;resizable=0;rotatable=0;part=1;html=1;" vertex="1" parent="sUNPVScMKGH0zn0_gehO-169">
          <mxGeometry y="50" width="110" height="90" as="geometry" />
        </mxCell>
        <mxCell id="sUNPVScMKGH0zn0_gehO-173" value="&lt;span style=&quot;font-size: 12px;&quot;&gt;E20&lt;/span&gt;&lt;div&gt;&lt;span style=&quot;font-size: 12px;&quot;&gt;Resident_GYM&lt;/span&gt;&lt;div&gt;&lt;/div&gt;&lt;/div&gt;" style="swimlane;childLayout=stackLayout;horizontal=1;startSize=50;horizontalStack=0;rounded=1;fontSize=14;fontStyle=0;strokeWidth=2;resizeParent=0;resizeLast=1;shadow=0;dashed=0;align=center;arcSize=4;whiteSpace=wrap;html=1;" vertex="1" parent="1">
          <mxGeometry x="1190" y="-200" width="120" height="160" as="geometry" />
        </mxCell>
        <mxCell id="sUNPVScMKGH0zn0_gehO-174" value="&lt;span style=&quot;text-wrap: wrap;&quot;&gt;resident(fk)&lt;/span&gt;&lt;div&gt;&lt;span style=&quot;text-wrap: wrap;&quot;&gt;Gym(fk)&lt;/span&gt;&lt;/div&gt;&lt;div&gt;&lt;span style=&quot;text-wrap: wrap;&quot;&gt;id(pk)&lt;/span&gt;&lt;/div&gt;&lt;div&gt;&lt;br&gt;&lt;/div&gt;" style="align=left;strokeColor=none;fillColor=none;spacingLeft=4;fontSize=12;verticalAlign=top;resizable=0;rotatable=0;part=1;html=1;" vertex="1" parent="sUNPVScMKGH0zn0_gehO-173">
          <mxGeometry y="50" width="120" height="110" as="geometry" />
        </mxCell>
        <mxCell id="sUNPVScMKGH0zn0_gehO-177" value="&lt;span style=&quot;font-size: 12px;&quot;&gt;E21&lt;/span&gt;&lt;div&gt;&lt;span style=&quot;font-size: 12px;&quot;&gt;Resident_sportField&lt;/span&gt;&lt;div&gt;&lt;/div&gt;&lt;/div&gt;" style="swimlane;childLayout=stackLayout;horizontal=1;startSize=50;horizontalStack=0;rounded=1;fontSize=14;fontStyle=0;strokeWidth=2;resizeParent=0;resizeLast=1;shadow=0;dashed=0;align=center;arcSize=4;whiteSpace=wrap;html=1;" vertex="1" parent="1">
          <mxGeometry x="700" y="60" width="120" height="160" as="geometry" />
        </mxCell>
        <mxCell id="sUNPVScMKGH0zn0_gehO-178" value="&lt;span style=&quot;text-wrap: wrap;&quot;&gt;resident(fk)&lt;/span&gt;&lt;div&gt;&lt;span style=&quot;text-wrap: wrap;&quot;&gt;sportField(fk)&lt;/span&gt;&lt;/div&gt;&lt;div&gt;&lt;span style=&quot;text-wrap: wrap;&quot;&gt;id(pk)&lt;/span&gt;&lt;/div&gt;&lt;div&gt;&lt;br&gt;&lt;/div&gt;" style="align=left;strokeColor=none;fillColor=none;spacingLeft=4;fontSize=12;verticalAlign=top;resizable=0;rotatable=0;part=1;html=1;" vertex="1" parent="sUNPVScMKGH0zn0_gehO-177">
          <mxGeometry y="50" width="120" height="110" as="geometry" />
        </mxCell>
        <mxCell id="sUNPVScMKGH0zn0_gehO-181" value="&lt;span style=&quot;font-size: 12px;&quot;&gt;E22&lt;/span&gt;&lt;div&gt;&lt;span style=&quot;font-size: 12px; background-color: initial;&quot;&gt;Resident_communityRoom&lt;/span&gt;&lt;div&gt;&lt;div&gt;&lt;/div&gt;&lt;/div&gt;&lt;/div&gt;" style="swimlane;childLayout=stackLayout;horizontal=1;startSize=50;horizontalStack=0;rounded=1;fontSize=14;fontStyle=0;strokeWidth=2;resizeParent=0;resizeLast=1;shadow=0;dashed=0;align=center;arcSize=4;whiteSpace=wrap;html=1;" vertex="1" parent="1">
          <mxGeometry x="950" y="-60" width="160" height="160" as="geometry" />
        </mxCell>
        <mxCell id="sUNPVScMKGH0zn0_gehO-182" value="&lt;span style=&quot;text-wrap: wrap;&quot;&gt;resident(fk)&lt;/span&gt;&lt;div&gt;&lt;span style=&quot;text-wrap: wrap;&quot;&gt;communityRoom(fk)&lt;/span&gt;&lt;/div&gt;&lt;div&gt;&lt;span style=&quot;text-wrap: wrap;&quot;&gt;id(pk)&lt;/span&gt;&lt;/div&gt;&lt;div&gt;&lt;br&gt;&lt;/div&gt;" style="align=left;strokeColor=none;fillColor=none;spacingLeft=4;fontSize=12;verticalAlign=top;resizable=0;rotatable=0;part=1;html=1;" vertex="1" parent="sUNPVScMKGH0zn0_gehO-181">
          <mxGeometry y="50" width="160" height="110" as="geometry" />
        </mxCell>
        <mxCell id="sUNPVScMKGH0zn0_gehO-188" value="&lt;span style=&quot;font-size: 12px;&quot;&gt;E23&lt;/span&gt;&lt;div&gt;&lt;span style=&quot;font-size: 12px; background-color: initial;&quot;&gt;Visitor_Event&lt;/span&gt;&lt;div&gt;&lt;div&gt;&lt;/div&gt;&lt;/div&gt;&lt;/div&gt;" style="swimlane;childLayout=stackLayout;horizontal=1;startSize=50;horizontalStack=0;rounded=1;fontSize=14;fontStyle=0;strokeWidth=2;resizeParent=0;resizeLast=1;shadow=0;dashed=0;align=center;arcSize=4;whiteSpace=wrap;html=1;" vertex="1" parent="1">
          <mxGeometry x="1050" y="1010" width="140" height="120" as="geometry" />
        </mxCell>
        <mxCell id="sUNPVScMKGH0zn0_gehO-189" value="&lt;span style=&quot;text-wrap: wrap;&quot;&gt;visitor(fk)&lt;/span&gt;&lt;div&gt;&lt;span style=&quot;text-wrap: wrap;&quot;&gt;sportField(fk)&lt;/span&gt;&lt;/div&gt;&lt;div&gt;&lt;span style=&quot;text-wrap: wrap;&quot;&gt;id(pk)&lt;/span&gt;&lt;/div&gt;&lt;div&gt;&lt;br&gt;&lt;/div&gt;" style="align=left;strokeColor=none;fillColor=none;spacingLeft=4;fontSize=12;verticalAlign=top;resizable=0;rotatable=0;part=1;html=1;" vertex="1" parent="sUNPVScMKGH0zn0_gehO-188">
          <mxGeometry y="50" width="140" height="70" as="geometry" />
        </mxCell>
        <mxCell id="sUNPVScMKGH0zn0_gehO-194" value="&lt;span style=&quot;font-size: 12px;&quot;&gt;E24&lt;/span&gt;&lt;div&gt;&lt;span style=&quot;font-size: 12px; background-color: initial;&quot;&gt;Visitor_GYM&lt;/span&gt;&lt;div&gt;&lt;div&gt;&lt;/div&gt;&lt;/div&gt;&lt;/div&gt;" style="swimlane;childLayout=stackLayout;horizontal=1;startSize=50;horizontalStack=0;rounded=1;fontSize=14;fontStyle=0;strokeWidth=2;resizeParent=0;resizeLast=1;shadow=0;dashed=0;align=center;arcSize=4;whiteSpace=wrap;html=1;" vertex="1" parent="1">
          <mxGeometry x="850" y="370" width="120" height="100" as="geometry" />
        </mxCell>
        <mxCell id="sUNPVScMKGH0zn0_gehO-195" value="&lt;span style=&quot;text-wrap: wrap;&quot;&gt;visitor(fk)&lt;/span&gt;&lt;div&gt;&lt;span style=&quot;text-wrap: wrap;&quot;&gt;gym(fk)&lt;/span&gt;&lt;/div&gt;&lt;div&gt;&lt;span style=&quot;text-wrap: wrap;&quot;&gt;id(pk)&lt;/span&gt;&lt;/div&gt;&lt;div&gt;&lt;br&gt;&lt;/div&gt;" style="align=left;strokeColor=none;fillColor=none;spacingLeft=4;fontSize=12;verticalAlign=top;resizable=0;rotatable=0;part=1;html=1;" vertex="1" parent="sUNPVScMKGH0zn0_gehO-194">
          <mxGeometry y="50" width="120" height="50" as="geometry" />
        </mxCell>
        <mxCell id="sUNPVScMKGH0zn0_gehO-87" value="&lt;span style=&quot;font-size: 12px;&quot;&gt;E3 SportField&lt;/span&gt;" style="swimlane;childLayout=stackLayout;horizontal=1;startSize=50;horizontalStack=0;rounded=1;fontSize=14;fontStyle=0;strokeWidth=2;resizeParent=0;resizeLast=1;shadow=0;dashed=0;align=center;arcSize=4;whiteSpace=wrap;html=1;" vertex="1" parent="1">
          <mxGeometry x="1243.5" y="440" width="120" height="170" as="geometry" />
        </mxCell>
        <mxCell id="sUNPVScMKGH0zn0_gehO-88" value="&lt;div&gt;&lt;span style=&quot;text-wrap: wrap;&quot;&gt;sportField_id(pk)&lt;/span&gt;&lt;/div&gt;&lt;span style=&quot;text-wrap: wrap;&quot;&gt;name&lt;/span&gt;&lt;div&gt;&lt;span style=&quot;text-wrap: wrap;&quot;&gt;availability&lt;/span&gt;&lt;span style=&quot;text-wrap: wrap;&quot;&gt;&lt;br&gt;&lt;/span&gt;&lt;/div&gt;&lt;div&gt;&lt;span style=&quot;text-wrap: wrap;&quot;&gt;duration&lt;/span&gt;&lt;div style=&quot;text-wrap: wrap;&quot;&gt;typeField&lt;br&gt;&lt;/div&gt;&lt;div style=&quot;text-wrap: wrap;&quot;&gt;reservation&lt;br&gt;&lt;/div&gt;&lt;div style=&quot;text-wrap: wrap;&quot;&gt;maximum_capacity&lt;br&gt;&lt;/div&gt;&lt;div style=&quot;text-wrap: wrap;&quot;&gt;location&lt;/div&gt;&lt;/div&gt;" style="align=left;strokeColor=none;fillColor=none;spacingLeft=4;fontSize=12;verticalAlign=top;resizable=0;rotatable=0;part=1;html=1;" vertex="1" parent="sUNPVScMKGH0zn0_gehO-87">
          <mxGeometry y="50" width="120" height="120" as="geometry" />
        </mxCell>
        <mxCell id="sUNPVScMKGH0zn0_gehO-198" value="&lt;span style=&quot;font-size: 12px;&quot;&gt;E25&lt;/span&gt;&lt;div&gt;&lt;span style=&quot;font-size: 12px; background-color: initial;&quot;&gt;Visitor_sportField&lt;/span&gt;&lt;div&gt;&lt;div&gt;&lt;/div&gt;&lt;/div&gt;&lt;/div&gt;" style="swimlane;childLayout=stackLayout;horizontal=1;startSize=50;horizontalStack=0;rounded=1;fontSize=14;fontStyle=0;strokeWidth=2;resizeParent=0;resizeLast=1;shadow=0;dashed=0;align=center;arcSize=4;whiteSpace=wrap;html=1;" vertex="1" parent="1">
          <mxGeometry x="730" y="250" width="110" height="120" as="geometry" />
        </mxCell>
        <mxCell id="sUNPVScMKGH0zn0_gehO-199" value="&lt;span style=&quot;text-wrap: wrap;&quot;&gt;visitor(fk)&lt;/span&gt;&lt;div&gt;&lt;span style=&quot;text-wrap: wrap;&quot;&gt;sportField(fk)&lt;/span&gt;&lt;/div&gt;&lt;div&gt;&lt;span style=&quot;text-wrap: wrap;&quot;&gt;id(pk)&lt;/span&gt;&lt;/div&gt;&lt;div&gt;&lt;br&gt;&lt;/div&gt;" style="align=left;strokeColor=none;fillColor=none;spacingLeft=4;fontSize=12;verticalAlign=top;resizable=0;rotatable=0;part=1;html=1;" vertex="1" parent="sUNPVScMKGH0zn0_gehO-198">
          <mxGeometry y="50" width="110" height="70" as="geometry" />
        </mxCell>
        <mxCell id="sUNPVScMKGH0zn0_gehO-204" value="&lt;span style=&quot;font-size: 12px;&quot;&gt;E26&lt;/span&gt;&lt;div&gt;&lt;span style=&quot;font-size: 12px; background-color: initial;&quot;&gt;Visitor_CommunityRoom&lt;/span&gt;&lt;div&gt;&lt;div&gt;&lt;/div&gt;&lt;/div&gt;&lt;/div&gt;" style="swimlane;childLayout=stackLayout;horizontal=1;startSize=50;horizontalStack=0;rounded=1;fontSize=14;fontStyle=0;strokeWidth=2;resizeParent=0;resizeLast=1;shadow=0;dashed=0;align=center;arcSize=4;whiteSpace=wrap;html=1;" vertex="1" parent="1">
          <mxGeometry x="940" y="150" width="160" height="160" as="geometry" />
        </mxCell>
        <mxCell id="sUNPVScMKGH0zn0_gehO-205" value="&lt;span style=&quot;text-wrap: wrap;&quot;&gt;visitor(fk)&lt;/span&gt;&lt;div&gt;&lt;span style=&quot;text-wrap: wrap;&quot;&gt;communityRoom(fk)&lt;/span&gt;&lt;/div&gt;&lt;div&gt;&lt;span style=&quot;text-wrap: wrap;&quot;&gt;id(pk)&lt;/span&gt;&lt;/div&gt;&lt;div&gt;&lt;br&gt;&lt;/div&gt;" style="align=left;strokeColor=none;fillColor=none;spacingLeft=4;fontSize=12;verticalAlign=top;resizable=0;rotatable=0;part=1;html=1;" vertex="1" parent="sUNPVScMKGH0zn0_gehO-204">
          <mxGeometry y="50" width="160" height="110" as="geometry" />
        </mxCell>
        <mxCell id="sUNPVScMKGH0zn0_gehO-208" value="&lt;span style=&quot;font-size: 12px;&quot;&gt;E27&lt;/span&gt;&lt;div&gt;&lt;span style=&quot;font-size: 12px; background-color: initial;&quot;&gt;propertyManager_event&lt;/span&gt;&lt;div&gt;&lt;div&gt;&lt;/div&gt;&lt;/div&gt;&lt;/div&gt;" style="swimlane;childLayout=stackLayout;horizontal=1;startSize=50;horizontalStack=0;rounded=1;fontSize=14;fontStyle=0;strokeWidth=2;resizeParent=0;resizeLast=1;shadow=0;dashed=0;align=center;arcSize=4;whiteSpace=wrap;html=1;" vertex="1" parent="1">
          <mxGeometry x="1115" y="860" width="160" height="120" as="geometry" />
        </mxCell>
        <mxCell id="sUNPVScMKGH0zn0_gehO-209" value="&lt;span style=&quot;text-wrap: wrap;&quot;&gt;propertyManager(fk)&lt;/span&gt;&lt;div&gt;&lt;span style=&quot;text-wrap: wrap;&quot;&gt;evento(fk)&lt;/span&gt;&lt;/div&gt;&lt;div&gt;&lt;span style=&quot;text-wrap: wrap;&quot;&gt;id(pk)&lt;/span&gt;&lt;/div&gt;&lt;div&gt;&lt;br&gt;&lt;/div&gt;" style="align=left;strokeColor=none;fillColor=none;spacingLeft=4;fontSize=12;verticalAlign=top;resizable=0;rotatable=0;part=1;html=1;" vertex="1" parent="sUNPVScMKGH0zn0_gehO-208">
          <mxGeometry y="50" width="160" height="70" as="geometry" />
        </mxCell>
        <mxCell id="sUNPVScMKGH0zn0_gehO-211" value="" style="edgeStyle=entityRelationEdgeStyle;fontSize=12;html=1;endArrow=ERmandOne;startArrow=ERmandOne;rounded=0;entryX=0;entryY=0;entryDx=0;entryDy=0;exitX=1;exitY=0.25;exitDx=0;exitDy=0;" edge="1" parent="1" source="sUNPVScMKGH0zn0_gehO-115" target="sUNPVScMKGH0zn0_gehO-93">
          <mxGeometry width="100" height="100" relative="1" as="geometry">
            <mxPoint x="-70" y="270" as="sourcePoint" />
            <mxPoint x="430" y="360" as="targetPoint" />
          </mxGeometry>
        </mxCell>
        <mxCell id="sUNPVScMKGH0zn0_gehO-93" value="&lt;span style=&quot;font-size: 12px;&quot;&gt;E6&amp;nbsp;UtilityBills&lt;/span&gt;" style="swimlane;childLayout=stackLayout;horizontal=1;startSize=50;horizontalStack=0;rounded=1;fontSize=14;fontStyle=0;strokeWidth=2;resizeParent=0;resizeLast=1;shadow=0;dashed=0;align=center;arcSize=4;whiteSpace=wrap;html=1;" vertex="1" parent="1">
          <mxGeometry x="150" y="290" width="100" height="130" as="geometry" />
        </mxCell>
        <mxCell id="sUNPVScMKGH0zn0_gehO-94" value="&lt;span style=&quot;text-wrap: wrap;&quot;&gt;name&lt;/span&gt;&lt;div&gt;&lt;span style=&quot;text-wrap: wrap;&quot;&gt;type&lt;/span&gt;&lt;span style=&quot;text-wrap: wrap;&quot;&gt;&lt;br&gt;&lt;/span&gt;&lt;/div&gt;&lt;div&gt;&lt;span style=&quot;text-wrap: wrap;&quot;&gt;date&lt;/span&gt;&lt;div style=&quot;text-wrap: wrap;&quot;&gt;price&lt;/div&gt;&lt;/div&gt;" style="align=left;strokeColor=none;fillColor=none;spacingLeft=4;fontSize=12;verticalAlign=top;resizable=0;rotatable=0;part=1;html=1;" vertex="1" parent="sUNPVScMKGH0zn0_gehO-93">
          <mxGeometry y="50" width="100" height="80" as="geometry" />
        </mxCell>
        <mxCell id="sUNPVScMKGH0zn0_gehO-215" value="" style="edgeStyle=entityRelationEdgeStyle;fontSize=12;html=1;endArrow=ERzeroToMany;startArrow=ERmandOne;rounded=0;" edge="1" parent="1" source="sUNPVScMKGH0zn0_gehO-101" target="sUNPVScMKGH0zn0_gehO-204">
          <mxGeometry width="100" height="100" relative="1" as="geometry">
            <mxPoint x="1080" y="570" as="sourcePoint" />
            <mxPoint x="1180" y="470" as="targetPoint" />
          </mxGeometry>
        </mxCell>
        <mxCell id="sUNPVScMKGH0zn0_gehO-216" value="" style="edgeStyle=entityRelationEdgeStyle;fontSize=12;html=1;endArrow=ERzeroToMany;startArrow=ERmandOne;rounded=0;" edge="1" parent="1" source="sUNPVScMKGH0zn0_gehO-89" target="sUNPVScMKGH0zn0_gehO-204">
          <mxGeometry width="100" height="100" relative="1" as="geometry">
            <mxPoint x="1080" y="570" as="sourcePoint" />
            <mxPoint x="1180" y="470" as="targetPoint" />
          </mxGeometry>
        </mxCell>
        <mxCell id="sUNPVScMKGH0zn0_gehO-217" value="" style="edgeStyle=entityRelationEdgeStyle;fontSize=12;html=1;endArrow=ERzeroToMany;startArrow=ERmandOne;rounded=0;" edge="1" parent="1" source="sUNPVScMKGH0zn0_gehO-99" target="sUNPVScMKGH0zn0_gehO-181">
          <mxGeometry width="100" height="100" relative="1" as="geometry">
            <mxPoint x="1380" y="340" as="sourcePoint" />
            <mxPoint x="1480" y="240" as="targetPoint" />
          </mxGeometry>
        </mxCell>
        <mxCell id="sUNPVScMKGH0zn0_gehO-218" value="" style="edgeStyle=entityRelationEdgeStyle;fontSize=12;html=1;endArrow=ERzeroToMany;startArrow=ERmandOne;rounded=0;" edge="1" parent="1" source="sUNPVScMKGH0zn0_gehO-89" target="sUNPVScMKGH0zn0_gehO-181">
          <mxGeometry width="100" height="100" relative="1" as="geometry">
            <mxPoint x="1340" y="340" as="sourcePoint" />
            <mxPoint x="1440" y="240" as="targetPoint" />
          </mxGeometry>
        </mxCell>
        <mxCell id="sUNPVScMKGH0zn0_gehO-219" value="" style="edgeStyle=entityRelationEdgeStyle;fontSize=12;html=1;endArrow=ERoneToMany;startArrow=ERmandOne;rounded=0;" edge="1" parent="1" source="sUNPVScMKGH0zn0_gehO-99" target="sUNPVScMKGH0zn0_gehO-173">
          <mxGeometry width="100" height="100" relative="1" as="geometry">
            <mxPoint x="1290" y="100" as="sourcePoint" />
            <mxPoint x="1390" as="targetPoint" />
          </mxGeometry>
        </mxCell>
        <mxCell id="sUNPVScMKGH0zn0_gehO-220" value="" style="edgeStyle=entityRelationEdgeStyle;fontSize=12;html=1;endArrow=ERzeroToMany;startArrow=ERmandOne;rounded=0;" edge="1" parent="1" source="sUNPVScMKGH0zn0_gehO-85" target="sUNPVScMKGH0zn0_gehO-173">
          <mxGeometry width="100" height="100" relative="1" as="geometry">
            <mxPoint x="1290" y="100" as="sourcePoint" />
            <mxPoint x="1390" as="targetPoint" />
          </mxGeometry>
        </mxCell>
        <mxCell id="sUNPVScMKGH0zn0_gehO-221" value="" style="edgeStyle=entityRelationEdgeStyle;fontSize=12;html=1;endArrow=ERzeroToMany;startArrow=ERmandOne;rounded=0;" edge="1" parent="1" source="sUNPVScMKGH0zn0_gehO-99" target="sUNPVScMKGH0zn0_gehO-177">
          <mxGeometry width="100" height="100" relative="1" as="geometry">
            <mxPoint x="1290" y="350" as="sourcePoint" />
            <mxPoint x="1390" y="250" as="targetPoint" />
          </mxGeometry>
        </mxCell>
        <mxCell id="sUNPVScMKGH0zn0_gehO-222" value="" style="edgeStyle=entityRelationEdgeStyle;fontSize=12;html=1;endArrow=ERzeroToMany;startArrow=ERmandOne;rounded=0;entryX=1;entryY=1;entryDx=0;entryDy=0;" edge="1" parent="1" source="sUNPVScMKGH0zn0_gehO-87" target="sUNPVScMKGH0zn0_gehO-178">
          <mxGeometry width="100" height="100" relative="1" as="geometry">
            <mxPoint x="1290" y="350" as="sourcePoint" />
            <mxPoint x="1390" y="250" as="targetPoint" />
          </mxGeometry>
        </mxCell>
        <mxCell id="sUNPVScMKGH0zn0_gehO-223" value="" style="edgeStyle=entityRelationEdgeStyle;fontSize=12;html=1;endArrow=ERoneToMany;startArrow=ERmandOne;rounded=0;" edge="1" parent="1" source="sUNPVScMKGH0zn0_gehO-99" target="sUNPVScMKGH0zn0_gehO-169">
          <mxGeometry width="100" height="100" relative="1" as="geometry">
            <mxPoint x="1290" y="90" as="sourcePoint" />
            <mxPoint x="1390" y="-10" as="targetPoint" />
          </mxGeometry>
        </mxCell>
        <mxCell id="sUNPVScMKGH0zn0_gehO-224" value="" style="edgeStyle=entityRelationEdgeStyle;fontSize=12;html=1;endArrow=ERzeroToMany;startArrow=ERmandOne;rounded=0;" edge="1" parent="1" source="sUNPVScMKGH0zn0_gehO-91" target="sUNPVScMKGH0zn0_gehO-169">
          <mxGeometry width="100" height="100" relative="1" as="geometry">
            <mxPoint x="1290" y="90" as="sourcePoint" />
            <mxPoint x="1390" y="-10" as="targetPoint" />
          </mxGeometry>
        </mxCell>
        <mxCell id="sUNPVScMKGH0zn0_gehO-225" value="" style="edgeStyle=entityRelationEdgeStyle;fontSize=12;html=1;endArrow=ERzeroToMany;startArrow=ERmandOne;rounded=0;" edge="1" parent="1" source="sUNPVScMKGH0zn0_gehO-101" target="sUNPVScMKGH0zn0_gehO-198">
          <mxGeometry width="100" height="100" relative="1" as="geometry">
            <mxPoint x="1290" y="320" as="sourcePoint" />
            <mxPoint x="1390" y="220" as="targetPoint" />
          </mxGeometry>
        </mxCell>
        <mxCell id="sUNPVScMKGH0zn0_gehO-226" value="" style="edgeStyle=entityRelationEdgeStyle;fontSize=12;html=1;endArrow=ERzeroToMany;startArrow=ERmandOne;rounded=0;" edge="1" parent="1" source="sUNPVScMKGH0zn0_gehO-87" target="sUNPVScMKGH0zn0_gehO-198">
          <mxGeometry width="100" height="100" relative="1" as="geometry">
            <mxPoint x="1290" y="320" as="sourcePoint" />
            <mxPoint x="1390" y="220" as="targetPoint" />
          </mxGeometry>
        </mxCell>
        <mxCell id="sUNPVScMKGH0zn0_gehO-227" value="" style="edgeStyle=entityRelationEdgeStyle;fontSize=12;html=1;endArrow=ERzeroToMany;startArrow=ERmandOne;rounded=0;" edge="1" parent="1" source="sUNPVScMKGH0zn0_gehO-101" target="sUNPVScMKGH0zn0_gehO-194">
          <mxGeometry width="100" height="100" relative="1" as="geometry">
            <mxPoint x="1270" y="520" as="sourcePoint" />
            <mxPoint x="1370" y="420" as="targetPoint" />
          </mxGeometry>
        </mxCell>
        <mxCell id="sUNPVScMKGH0zn0_gehO-228" value="" style="edgeStyle=entityRelationEdgeStyle;fontSize=12;html=1;endArrow=ERzeroToMany;startArrow=ERmandOne;rounded=0;" edge="1" parent="1" source="sUNPVScMKGH0zn0_gehO-85" target="sUNPVScMKGH0zn0_gehO-194">
          <mxGeometry width="100" height="100" relative="1" as="geometry">
            <mxPoint x="1270" y="520" as="sourcePoint" />
            <mxPoint x="1370" y="420" as="targetPoint" />
          </mxGeometry>
        </mxCell>
        <mxCell id="sUNPVScMKGH0zn0_gehO-229" value="" style="edgeStyle=entityRelationEdgeStyle;fontSize=12;html=1;endArrow=ERoneToMany;startArrow=ERmandOne;rounded=0;" edge="1" parent="1" source="sUNPVScMKGH0zn0_gehO-103" target="sUNPVScMKGH0zn0_gehO-208">
          <mxGeometry width="100" height="100" relative="1" as="geometry">
            <mxPoint x="1270" y="790" as="sourcePoint" />
            <mxPoint x="1370" y="690" as="targetPoint" />
          </mxGeometry>
        </mxCell>
        <mxCell id="sUNPVScMKGH0zn0_gehO-230" value="" style="edgeStyle=entityRelationEdgeStyle;fontSize=12;html=1;endArrow=ERzeroToMany;startArrow=ERmandOne;rounded=0;" edge="1" parent="1" source="sUNPVScMKGH0zn0_gehO-91" target="sUNPVScMKGH0zn0_gehO-208">
          <mxGeometry width="100" height="100" relative="1" as="geometry">
            <mxPoint x="1100" y="950" as="sourcePoint" />
            <mxPoint x="1200" y="850" as="targetPoint" />
          </mxGeometry>
        </mxCell>
        <mxCell id="sUNPVScMKGH0zn0_gehO-231" value="" style="edgeStyle=entityRelationEdgeStyle;fontSize=12;html=1;endArrow=ERoneToMany;startArrow=ERmandOne;rounded=0;" edge="1" parent="1" source="sUNPVScMKGH0zn0_gehO-101" target="sUNPVScMKGH0zn0_gehO-188">
          <mxGeometry width="100" height="100" relative="1" as="geometry">
            <mxPoint x="1050" y="750" as="sourcePoint" />
            <mxPoint x="1150" y="650" as="targetPoint" />
          </mxGeometry>
        </mxCell>
        <mxCell id="sUNPVScMKGH0zn0_gehO-232" value="" style="edgeStyle=entityRelationEdgeStyle;fontSize=12;html=1;endArrow=ERzeroToMany;startArrow=ERmandOne;rounded=0;" edge="1" parent="1" source="sUNPVScMKGH0zn0_gehO-91" target="sUNPVScMKGH0zn0_gehO-188">
          <mxGeometry width="100" height="100" relative="1" as="geometry">
            <mxPoint x="1050" y="750" as="sourcePoint" />
            <mxPoint x="1150" y="650" as="targetPoint" />
          </mxGeometry>
        </mxCell>
      </root>
    </mxGraphModel>
  </diagram>
</mxfile>
